<svg width="123" height="123" viewBox="0 0 123 123" fill="none" xmlns="http://www.w3.org/2000/svg">
<path d="M61.08 35.9294C58.9242 35.9294 57.4871 34.4922 57.4871 32.3365V3.59294C57.4871 1.43718 58.9242 0 61.08 0C63.2358 0 64.6729 1.43718 64.6729 3.59294V32.3365C64.6729 34.4922 63.2358 35.9294 61.08 35.9294Z" fill="black"/>
<path opacity="0.3" d="M61.08 122.16C58.9242 122.16 57.4871 120.723 57.4871 118.567V89.8235C57.4871 87.6678 58.9242 86.2306 61.08 86.2306C63.2358 86.2306 64.6729 87.6678 64.6729 89.8235V118.567C64.6729 120.723 63.2358 122.16 61.08 122.16Z" fill="black"/>
<path opacity="0.3" d="M75.4518 39.5223C74.7332 39.5223 74.3739 39.5223 73.6553 39.1631C72.2181 38.0852 71.4995 36.2887 72.5774 34.4922L86.9492 9.70094C88.0271 8.26376 89.8235 7.54517 91.62 8.62305C93.0572 9.70094 93.7758 11.4974 92.6979 13.2939L78.3261 38.0852C77.6075 38.8038 76.5296 39.5223 75.4518 39.5223Z" fill="black"/>
<path opacity="0.3" d="M32.3365 114.256C31.6179 114.256 31.2586 114.256 30.54 113.896C29.1028 112.818 28.3842 111.022 29.4621 109.225L43.8339 84.4341C44.9118 82.9969 46.7082 82.2784 48.5047 83.3562C49.9419 84.4341 50.6605 86.2306 49.5826 88.0271L35.2108 112.818C34.4922 113.537 33.4144 114.256 32.3365 114.256Z" fill="black"/>
<path opacity="0.93" d="M46.7082 39.5224C45.6303 39.5224 44.5525 38.8038 43.8339 37.7259L29.4621 12.9346C28.3842 11.4974 29.1028 9.34165 30.54 8.26377C31.9772 7.18588 34.1329 7.90447 35.2108 9.34165L49.5826 34.1329C50.6605 35.5701 49.9419 37.7259 48.5047 38.8038C47.7861 39.5224 47.4268 39.5224 46.7082 39.5224Z" fill="black"/>
<path opacity="0.3" d="M89.8235 114.256C88.7456 114.256 87.6678 113.537 86.9492 112.459L72.5774 87.6678C71.4995 86.2306 72.2181 84.0748 73.6553 82.9969C75.0925 81.9191 77.2482 82.6376 78.3261 84.0748L92.6979 108.866C93.7758 110.303 93.0572 112.459 91.62 113.537C90.9014 113.896 90.5421 114.256 89.8235 114.256Z" fill="black"/>
<path opacity="0.65" d="M32.3365 64.6729H3.59294C1.43718 64.6729 0 63.2358 0 61.08C0 58.9242 1.43718 57.4871 3.59294 57.4871H32.3365C34.4922 57.4871 35.9294 58.9242 35.9294 61.08C35.9294 63.2358 34.4922 64.6729 32.3365 64.6729Z" fill="black"/>
<path opacity="0.3" d="M118.567 64.6729H89.8235C87.6678 64.6729 86.2306 63.2358 86.2306 61.08C86.2306 58.9242 87.6678 57.4871 89.8235 57.4871H118.567C120.723 57.4871 122.16 58.9242 122.16 61.08C122.16 63.2358 120.723 64.6729 118.567 64.6729Z" fill="black"/>
<path opacity="0.86" d="M36.2887 49.9419C35.5701 49.9419 35.2108 49.9419 34.4922 49.5826L9.70094 35.2108C8.26376 34.1329 7.54518 32.3365 8.62306 30.54C9.70094 29.1028 11.4974 28.3842 13.2939 29.4621L38.0852 43.8339C39.5224 44.9118 40.2409 46.7082 39.1631 48.5047C38.4445 49.5826 37.3666 49.9419 36.2887 49.9419Z" fill="black"/>
<path opacity="0.3" d="M111.022 93.0572C110.303 93.0572 109.944 93.0572 109.225 92.6979L84.4341 78.3261C82.9969 77.2482 82.2784 75.4518 83.3562 73.6553C84.4341 72.2181 86.2306 71.4995 88.0271 72.5774L112.818 86.9492C114.256 88.0271 114.974 89.8235 113.896 91.62C113.178 92.6979 112.1 93.0572 111.022 93.0572Z" fill="black"/>
<path opacity="0.44" d="M11.1381 93.0572C10.0602 93.0572 8.98235 92.3386 8.26377 91.2607C7.18588 89.8235 7.90447 87.6678 9.34165 86.5899L34.1329 72.2181C35.5701 71.1402 37.7259 71.8588 38.8038 73.296C39.8816 74.7332 39.1631 76.8889 37.7259 77.9668L12.9346 92.3386C12.5753 93.0572 11.8567 93.0572 11.1381 93.0572Z" fill="black"/>
<path opacity="0.3" d="M85.8713 49.9419C84.7934 49.9419 83.7155 49.2233 82.9969 48.1454C81.9191 46.7082 82.6376 44.5525 84.0748 43.4746L108.866 29.1028C110.303 28.0249 112.459 28.7435 113.537 30.1807C114.615 31.6179 113.896 33.7736 112.459 34.8515L87.6678 49.2233C86.9492 49.9419 86.5899 49.9419 85.8713 49.9419Z" fill="black"/>
</svg>
